<mxfile host="app.diagrams.net" agent="Mozilla/5.0 (Windows NT 10.0; Win64; x64) AppleWebKit/537.36 (KHTML, like Gecko) Chrome/131.0.0.0 Safari/537.36 Edg/131.0.0.0" version="25.0.3">
  <diagram name="Page-1" id="UYRkulO7XMv_27QXD-4n">
    <mxGraphModel dx="996" dy="567" grid="1" gridSize="10" guides="1" tooltips="1" connect="1" arrows="1" fold="1" page="1" pageScale="1" pageWidth="850" pageHeight="1100" math="0" shadow="0">
      <root>
        <mxCell id="0" />
        <mxCell id="1" parent="0" />
        <mxCell id="Q2FG1Mq0Ygy9OqTxdJOf-1" value="" style="edgeStyle=orthogonalEdgeStyle;rounded=0;orthogonalLoop=1;jettySize=auto;html=1;" edge="1" parent="1" source="Q2FG1Mq0Ygy9OqTxdJOf-2" target="Q2FG1Mq0Ygy9OqTxdJOf-5">
          <mxGeometry relative="1" as="geometry" />
        </mxCell>
        <mxCell id="Q2FG1Mq0Ygy9OqTxdJOf-2" value="Pretrained&lt;div&gt;LLM&lt;/div&gt;" style="sketch=0;outlineConnect=0;fontColor=#232F3E;gradientColor=none;fillColor=#7AA116;strokeColor=none;dashed=0;verticalLabelPosition=bottom;verticalAlign=top;align=center;html=1;fontSize=12;fontStyle=0;aspect=fixed;pointerEvents=1;shape=mxgraph.aws4.iot_sitewise_asset_model;" vertex="1" parent="1">
          <mxGeometry x="260" y="180" width="60" height="60" as="geometry" />
        </mxCell>
        <mxCell id="Q2FG1Mq0Ygy9OqTxdJOf-3" value="" style="edgeStyle=orthogonalEdgeStyle;rounded=0;orthogonalLoop=1;jettySize=auto;html=1;" edge="1" parent="1" source="Q2FG1Mq0Ygy9OqTxdJOf-4" target="Q2FG1Mq0Ygy9OqTxdJOf-2">
          <mxGeometry relative="1" as="geometry" />
        </mxCell>
        <mxCell id="Q2FG1Mq0Ygy9OqTxdJOf-4" value="C" style="ellipse;whiteSpace=wrap;html=1;aspect=fixed;fillColor=#f8cecc;strokeColor=#b85450;" vertex="1" parent="1">
          <mxGeometry x="180" y="195" width="30" height="30" as="geometry" />
        </mxCell>
        <mxCell id="Q2FG1Mq0Ygy9OqTxdJOf-5" value="D" style="ellipse;whiteSpace=wrap;html=1;aspect=fixed;fillColor=#dae8fc;strokeColor=#6c8ebf;" vertex="1" parent="1">
          <mxGeometry x="370" y="195" width="30" height="30" as="geometry" />
        </mxCell>
      </root>
    </mxGraphModel>
  </diagram>
</mxfile>
